<svg width="100" height="100" viewBox="0 0 100 100" fill="none" xmlns="http://www.w3.org/2000/svg">
<path d="M86.6003 29.5383C86.3437 28.6533 85.4202 28.1416 84.5353 28.4016C83.6503 28.6567 83.1419 29.5817 83.3986 30.4649C84.3669 33.7998 84.5302 36.5182 83.9269 39.2733C83.732 40.1733 84.3001 41.0616 85.2001 41.2567C85.3185 41.2817 85.4384 41.2949 85.5568 41.2949C86.3234 41.2949 87.0134 40.7633 87.1833 39.9883C87.9021 36.7033 87.7154 33.3834 86.6003 29.5383Z" fill="#4267B2"/>
<path d="M83.1567 22.5867C80.9667 18.2084 73.2217 16.5268 69.2534 18.5084C68.4301 18.9201 68.0967 19.9217 68.5085 20.7451C68.9202 21.5684 69.9184 21.9002 70.7452 21.49C73.4235 20.1551 78.9753 21.6783 80.1753 24.0783C80.4686 24.6633 81.0569 25 81.6686 25C81.9186 25 82.1737 24.9434 82.412 24.8232C83.235 24.4117 83.5684 23.41 83.1567 22.5867Z" fill="#4267B2"/>
<path d="M88.8383 18.0016C82.7916 11.5849 76.1717 8.33319 69.16 8.33319C61.3217 8.33319 54.2299 13.0531 50 20.8715C45.775 13.0531 38.7034 8.33319 30.895 8.33319C23.92 8.33319 17.4866 11.4916 11.2284 17.9883C4.035 25.4533 0.978363 42.6367 13.9467 55.4816C20.0633 61.5367 48.5166 90.865 48.8034 91.1599C49.1184 91.4849 49.5483 91.6666 50 91.6666C50.45 91.6666 50.8817 91.4849 51.1967 91.1615C51.4834 90.8648 79.9916 61.5383 86.1084 55.4814C98.9518 42.7599 95.9467 25.54 88.8383 18.0016ZM83.7633 53.1133C78.3467 58.4766 55.5082 81.9482 50.0016 87.6082C44.5051 81.9467 21.71 58.4766 16.2934 53.1133C4.84848 41.7799 7.3934 26.775 13.6301 20.3C19.2268 14.49 24.8735 11.6666 30.8952 11.6666C38.3602 11.6666 45.0868 16.9398 48.4502 25.4283C48.7036 26.065 49.3168 26.4816 50.0002 26.4816C50.6836 26.4816 51.2985 26.065 51.5502 25.4283C54.9135 16.94 61.662 11.6666 69.1602 11.6666C75.3018 11.6666 80.9452 14.4849 86.4135 20.2883C92.585 26.8349 95.0985 41.8867 83.7633 53.1133Z" fill="#4267B2"/>
<path d="M98.3334 51.6666H70.8916L68.0533 47.41C67.435 46.4817 65.8982 46.4817 65.2801 47.41L60.4 54.7317L53.2232 36.0699C52.9582 35.385 52.2648 34.9432 51.5432 35.0067C50.8098 35.06 50.1998 35.5883 50.0398 36.3067L44.4449 61.485L36.5148 44.3016C36.2732 43.7783 35.7766 43.4149 35.2031 43.3465C34.6248 43.2615 34.0598 43.5082 33.6998 43.9582L27.5332 51.6666H1.6666C0.74668 51.6666 0 52.4115 0 53.3332C0 54.2549 0.74668 54.9998 1.6666 54.9998H28.3332C28.8398 54.9998 29.3182 54.7697 29.635 54.3748L34.6166 48.1465L43.4865 67.3649C43.7615 67.9582 44.3564 68.3332 44.9998 68.3332C45.0582 68.3332 45.1182 68.3299 45.1764 68.3233C45.8881 68.2465 46.4713 67.7266 46.6264 67.0283L52.0947 42.4233L58.4447 58.9317C58.668 59.5133 59.198 59.9217 59.8164 59.9901C60.4397 60.0567 61.0414 59.7783 61.3863 59.2584L66.6664 51.3385L68.6131 54.2584C68.923 54.7217 69.4432 55 69.9998 55H98.3332C99.2531 55 99.9998 54.2551 99.9998 53.3334C99.9998 52.4117 99.2533 51.6666 98.3334 51.6666Z" fill="#4267B2"/>
</svg>
