<svg width="100" height="100" viewBox="0 0 100 100" fill="none" xmlns="http://www.w3.org/2000/svg">
<g clip-path="url(#clip0_156_2281)">
<path d="M95 56.6667C92.2386 56.6667 90 58.9053 90 61.6667V66.6667H36.0817C36.4619 65.8878 36.6618 65.0334 36.6667 64.1667C36.6667 60.945 34.055 58.3334 30.8333 58.3334H19.1667C15.945 58.3334 13.3333 60.945 13.3333 64.1667C13.3382 65.0334 13.5382 65.8878 13.9183 66.6667H10V48.3334C10 45.572 7.76143 43.3334 5.00001 43.3334C2.23859 43.3334 9.0805e-06 45.572 9.0805e-06 48.3334V95C-0.00459992 97.4324 1.74582 99.5135 4.14305 99.9257C6.54027 100.338 8.88525 98.961 9.69334 96.6667H90.3067C91.1148 98.961 93.4598 100.338 95.857 99.9257C98.2542 99.5135 100.005 97.4324 100 95V61.6667C100 58.9053 97.7614 56.6667 95 56.6667ZM90 85H31.6667C30.7462 85 30 84.2538 30 83.3334V70H90V85ZM16.6667 64.1667C16.6667 62.786 17.786 61.6667 19.1667 61.6667H30.8333C32.2141 61.6667 33.3333 62.786 33.3333 64.1667C33.3333 65.5474 32.2141 66.6667 30.8333 66.6667H19.1667C17.786 66.6667 16.6667 65.5474 16.6667 64.1667ZM5.00001 96.6667C4.07953 96.6667 3.33334 95.9205 3.33334 95V48.3334C3.33334 47.4129 4.07953 46.6667 5.00001 46.6667C5.92048 46.6667 6.66668 47.4129 6.66668 48.3334V95C6.66668 95.9205 5.92048 96.6667 5.00001 96.6667ZM10 70H26.6667V83.3334C26.6667 86.0948 28.9053 88.3334 31.6667 88.3334H90V93.3334H10V70ZM96.6667 95C96.6667 95.9205 95.9205 96.6667 95 96.6667C94.0795 96.6667 93.3333 95.9205 93.3333 95V61.6667C93.3333 60.7462 94.0795 60 95 60C95.9205 60 96.6667 60.7462 96.6667 61.6667V95Z" fill="#4267B2"/>
<path d="M49.9997 53.3333C64.7273 53.3333 76.6663 41.3943 76.6663 26.6667C76.6663 11.9391 64.7273 0 49.9997 0C35.2721 0 23.333 11.9391 23.333 26.6667C23.3505 41.387 35.2793 53.3159 49.9997 53.3333ZM49.9997 3.33333C62.8863 3.33333 73.333 13.78 73.333 26.6667C73.333 39.5533 62.8863 50 49.9997 50C37.113 50 26.6663 39.5533 26.6663 26.6667C26.6801 13.7857 37.1187 3.34711 49.9997 3.33333Z" fill="#4267B2"/>
<path d="M38.3333 33.3334H43.3333V38.3334C43.3333 40.1744 44.8257 41.6668 46.6667 41.6668H53.3333C55.1743 41.6668 56.6667 40.1744 56.6667 38.3334V33.3334H61.6667C63.5076 33.3334 65 31.841 65 30.0001V23.3334C65 21.4925 63.5076 20.0001 61.6667 20.0001H56.6667V15.0001C56.6667 13.1591 55.1743 11.6667 53.3333 11.6667H46.6667C44.8257 11.6667 43.3333 13.1591 43.3333 15.0001V20.0001H38.3333C36.4924 20.0001 35 21.4925 35 23.3334V30.0001C35 31.841 36.4924 33.3334 38.3333 33.3334ZM38.3333 23.3334H43.3333C45.1743 23.3334 46.6667 21.841 46.6667 20.0001V15.0001H53.3333V20.0001C53.3333 21.841 54.8257 23.3334 56.6667 23.3334H61.6667V30.0001H56.6667C54.8257 30.0001 53.3333 31.4925 53.3333 33.3334V38.3334H46.6667V33.3334C46.6667 31.4925 45.1743 30.0001 43.3333 30.0001H38.3333V23.3334Z" fill="#4267B2"/>
<path d="M34.9997 76.6667H71.6663C72.5868 76.6667 73.333 75.9205 73.333 75C73.333 74.0796 72.5868 73.3334 71.6663 73.3334H34.9997C34.0792 73.3334 33.333 74.0796 33.333 75C33.333 75.9205 34.0792 76.6667 34.9997 76.6667Z" fill="#4267B2"/>
<path d="M78.3337 76.6667C79.2541 76.6667 80.0003 75.9205 80.0003 75C80.0003 74.0796 79.2541 73.3334 78.3337 73.3334C77.4132 73.3334 76.667 74.0796 76.667 75C76.667 75.9205 77.4132 76.6667 78.3337 76.6667Z" fill="#4267B2"/>
</g>
<defs>
<clipPath id="clip0_156_2281">
<rect width="100" height="100" fill="white"/>
</clipPath>
</defs>
</svg>
