<svg width="50" height="50" viewBox="0 0 50 50" fill="none" xmlns="http://www.w3.org/2000/svg">
<path d="M31.3395 32.3684C31.4297 32.2215 31.5199 32.0774 31.6102 31.9277C35.6684 25.209 37.7105 19.3316 37.6812 14.4609C37.6632 11.1099 36.3195 7.90223 33.9438 5.53883C31.5681 3.17543 28.3534 1.84847 25.0023 1.8479C21.6512 1.84733 18.4362 3.17321 16.0596 5.5358C13.6831 7.89839 12.3383 11.1056 12.3191 14.4566C12.2895 19.3316 14.332 25.2098 18.3902 31.9277C18.4805 32.0774 18.5707 32.2215 18.6609 32.3684C10.1172 33.4242 4.45312 36.4777 4.45312 40.1031C4.45312 44.6547 13.4766 48.2199 25 48.2199C36.5234 48.2199 45.5469 44.6547 45.5469 40.1031C45.5469 36.4777 39.8828 33.4242 31.3395 32.3684ZM13.6863 14.4609C13.6779 12.9696 13.9643 11.4913 14.5292 10.111C15.0941 8.7308 15.9264 7.47586 16.978 6.41841C18.0297 5.36095 19.28 4.52185 20.6571 3.94937C22.0343 3.37688 23.511 3.08231 25.0024 3.08259C26.4937 3.08287 27.9703 3.37801 29.3472 3.95102C30.7241 4.52402 31.9742 5.3636 33.0254 6.42145C34.0767 7.47931 34.9084 8.73456 35.4728 10.115C36.0372 11.4955 36.3231 12.9739 36.3141 14.4652C36.3727 24.1754 27.2945 36.1516 25 39.0234C22.7055 36.1516 13.627 24.175 13.6863 14.4609ZM25 46.8527C13.527 46.8527 5.82031 43.3625 5.82031 40.1031C5.82031 37.2125 11.5348 34.5231 19.4664 33.6508C21.0004 36.046 22.6743 38.3487 24.4793 40.5469C24.5434 40.6224 24.6232 40.6832 24.7131 40.7248C24.803 40.7664 24.9009 40.788 25 40.788C25.0991 40.788 25.197 40.7664 25.2869 40.7248C25.3768 40.6832 25.4566 40.6224 25.5207 40.5469C27.3258 38.3487 28.9998 36.046 30.534 33.6508C38.4637 34.5231 44.1801 37.2109 44.1801 40.1031C44.1797 43.3625 36.473 46.8527 25 46.8527Z" fill="#4267B2"/>
<path d="M19.4109 42.8934C16.3773 42.5051 13.9421 41.8215 12.5562 40.9696C12.4797 40.9207 12.3942 40.8875 12.3048 40.872C12.2154 40.8565 12.1237 40.8589 12.0352 40.8792C11.9468 40.8995 11.8632 40.9372 11.7894 40.9901C11.7157 41.0431 11.6532 41.1101 11.6057 41.1875C11.5581 41.2648 11.5265 41.3508 11.5125 41.4405C11.4986 41.5302 11.5026 41.6218 11.5245 41.7099C11.5463 41.798 11.5854 41.8809 11.6396 41.9537C11.6939 42.0265 11.762 42.0878 11.8402 42.134C13.3882 43.0856 16.0156 43.8372 19.2374 44.2493C19.2664 44.253 19.2957 44.2548 19.3249 44.2547C19.4982 44.2539 19.6647 44.1873 19.7907 44.0684C19.9168 43.9495 19.9929 43.7871 20.0039 43.6142C20.0148 43.4413 19.9596 43.2707 19.8495 43.1368C19.7395 43.003 19.5827 42.916 19.4109 42.8934Z" fill="#4267B2"/>
<path d="M30.7724 14.461C30.7722 13.3193 30.4335 12.2032 29.7991 11.254C29.1647 10.3048 28.263 9.56503 27.2082 9.12824C26.1533 8.69146 24.9926 8.57727 23.8729 8.80013C22.7532 9.02299 21.7246 9.57288 20.9174 10.3803C20.1102 11.1877 19.5605 12.2163 19.3379 13.3361C19.1152 14.4559 19.2297 15.6165 19.6667 16.6713C20.1037 17.7261 20.8436 18.6276 21.793 19.2618C22.7423 19.896 23.8584 20.2345 25.0001 20.2344C26.5306 20.2325 27.9979 19.6236 29.0801 18.5413C30.1622 17.4589 30.7708 15.9915 30.7724 14.461ZM20.5946 14.461C20.5948 13.5897 20.8533 12.738 21.3375 12.0136C21.8216 11.2893 22.5097 10.7247 23.3147 10.3914C24.1198 10.0581 25.0055 9.97095 25.86 10.141C26.7146 10.3111 27.4995 10.7307 28.1155 11.3469C28.7316 11.963 29.1511 12.748 29.321 13.6026C29.4909 14.4571 29.4036 15.3429 29.0701 16.1478C28.7367 16.9528 28.172 17.6408 27.4476 18.1248C26.7231 18.6089 25.8714 18.8672 25.0001 18.8672C23.8319 18.866 22.712 18.4013 21.8861 17.5752C21.0601 16.7491 20.5957 15.6291 20.5946 14.461Z" fill="#4267B2"/>
</svg>
