<svg width="101" height="101" viewBox="0 0 101 101" fill="none" xmlns="http://www.w3.org/2000/svg">
<g clip-path="url(#clip0_361_11827)">
<path d="M65.0857 14.6972C63.7139 9.563 60.4395 5.28117 55.866 2.64059C52.8737 0.913139 49.4659 0 46.011 0C38.9197 0 32.3261 3.79025 28.8036 9.89165L16.3199 31.5138C16.3187 31.5158 16.3173 31.5176 16.3161 31.5196C16.315 31.5215 16.3142 31.5237 16.313 31.5257L3.82888 53.1485C-1.63299 62.6089 1.6203 74.7492 11.0807 80.211C14.0724 81.9383 17.4798 82.8512 20.9343 82.8512C27.4018 82.8512 33.4723 79.7202 37.1724 74.476C37.2063 74.4278 37.238 74.3783 37.2674 74.3276L63.1164 29.7059C65.7552 25.1503 66.4545 19.8204 65.0857 14.6972ZM33.8991 72.2711C30.9325 76.4273 26.0926 78.9059 20.9343 78.9059C18.1714 78.9059 15.4462 78.1757 13.0534 76.7942C5.47683 72.4201 2.87155 62.6975 7.2457 55.1209L18.7468 35.2005L23.0168 37.6658C23.0172 37.6659 23.0174 37.6663 23.0178 37.6663C23.018 37.6665 23.0184 37.6665 23.0186 37.6667L46.1937 51.0474L33.8991 72.2711ZM59.7024 27.7279L48.1711 47.6339L26.6986 35.2364L32.2173 25.6778C32.7619 24.7343 32.4388 23.5278 31.4953 22.9831C30.5518 22.4383 29.3453 22.7616 28.8006 23.7051L23.282 33.2638L20.7193 31.7843L32.22 11.8645C35.0403 6.97962 40.3246 3.9453 46.011 3.9453C48.7743 3.9453 51.5001 4.67557 53.8933 6.05741C57.5536 8.17051 60.1748 11.6008 61.2742 15.7157C62.3706 19.8196 61.8123 24.0856 59.7024 27.7279Z" fill="#4267B2"/>
<path d="M91.1864 67.6264C86.3696 66.2501 80.0173 65.4922 73.2998 65.4922C66.5823 65.4922 60.2302 66.2501 55.4134 67.6264C49.6903 69.2615 46.7856 71.5636 46.7789 74.4687C46.7789 74.4723 46.7783 74.4754 46.7783 74.4788V92.0133C46.7783 94.9285 49.6789 97.2355 55.3992 98.8698C60.2069 100.244 66.5642 101 73.2994 101C80.0346 101 86.3919 100.244 91.1996 98.8698C96.9201 97.2355 99.8205 94.9285 99.8205 92.0133V74.491C99.8209 74.4871 99.8213 74.4829 99.8213 74.4788C99.8213 71.5689 96.9159 69.2633 91.1864 67.6264ZM56.4974 71.42C60.9717 70.1417 66.939 69.4377 73.3 69.4377C79.6612 69.4377 85.6285 70.1417 90.1028 71.42C94.8591 72.779 95.8702 74.2385 95.876 74.4766C95.876 74.4774 95.8758 74.4782 95.8758 74.479V74.4823C95.8677 74.723 94.8533 76.1804 90.1028 77.5378C85.6285 78.8161 79.6612 79.5201 73.3 79.5201C66.939 79.5201 60.9717 78.8161 56.4974 77.5378C51.7277 76.1751 50.724 74.7108 50.724 74.479C50.724 74.2472 51.7277 72.7827 56.4974 71.42ZM95.876 92.0133C95.8756 92.2946 94.8508 93.7236 90.1162 95.0764C85.6509 96.3521 79.6787 97.0548 73.2998 97.0548C66.9206 97.0548 60.9486 96.3523 56.4834 95.0764C51.7488 93.7238 50.724 92.2946 50.724 92.0133V79.5234C51.9871 80.1951 53.55 80.7988 55.4136 81.3312C60.2304 82.7075 66.5825 83.4654 73.3 83.4654C80.0174 83.4654 86.3698 82.7075 91.1866 81.3312C93.0499 80.7988 94.6125 80.1953 95.8758 79.5236V84.4466C93.0454 85.8472 89.5148 86.9814 85.5776 87.747C84.508 87.9549 83.8097 88.9904 84.0176 90.06C84.2008 91.0023 85.0264 91.6564 85.952 91.6564C86.0768 91.6564 86.2035 91.6444 86.3305 91.6197C89.8442 90.9366 93.0845 89.97 95.876 88.7837V92.0133Z" fill="#4267B2"/>
<path d="M34.459 17.8498C33.5154 17.3051 32.3092 17.6283 31.7643 18.5718L31.7324 18.6272C31.1877 19.5707 31.5108 20.777 32.4544 21.3219C32.765 21.5012 33.1041 21.5864 33.4389 21.5864C34.1206 21.5864 34.7837 21.2327 35.149 20.5999L35.1809 20.5444C35.7258 19.6009 35.4025 18.3946 34.459 17.8498Z" fill="#4267B2"/>
<path d="M82.0058 90.3396C81.8977 89.2559 80.933 88.465 79.8467 88.5731L79.8023 88.5775C78.7177 88.68 77.9218 89.6427 78.0246 90.7273C78.1212 91.7485 78.9805 92.5139 79.986 92.5139C80.0481 92.5139 80.1112 92.5109 80.1743 92.505L80.2393 92.4987C81.3232 92.3904 82.1143 91.4236 82.0058 90.3396Z" fill="#4267B2"/>
</g>
<defs>
<clipPath id="clip0_361_11827">
<rect width="101" height="101" fill="white"/>
</clipPath>
</defs>
</svg>
