<svg width="84" height="100" viewBox="0 0 84 100" fill="none" xmlns="http://www.w3.org/2000/svg">
<path d="M83.2615 94.59C83.2615 91.5363 80.7772 89.0521 77.7236 89.0521H66.9092V82.7559C66.9092 82.3125 66.883 81.8752 66.8357 81.4439L73.0006 75.2791C74.383 73.8965 75.1445 72.0584 75.1445 70.1031V33.1852C75.1445 31.2299 74.3832 29.3918 73.0006 28.0092L62.3074 17.316C60.9248 15.9334 59.0865 15.1721 57.1312 15.1721H49.8242C49.015 15.1721 48.3594 15.8279 48.3594 16.6369C48.3594 17.4459 49.015 18.1018 49.8242 18.1018H57.1312C58.3041 18.1018 59.4064 18.5584 60.2357 19.3875L70.9289 30.0807C71.7582 30.91 72.2148 32.0123 72.2148 33.1852V70.1031C72.2148 71.2758 71.7582 72.3781 70.9289 73.2074L65.9855 78.1508C64.1787 73.8395 59.9156 70.8027 54.9561 70.8027C48.365 70.8027 43.0029 76.1648 43.0029 82.7559V83.1561H35.2508C35.2508 80.2068 35.2508 71.683 35.2508 68.7314H54.6604C56.0871 68.7314 57.4285 68.1758 58.4375 67.1668L63.0906 62.5135C64.0996 61.5049 64.6553 60.1635 64.6553 58.7363V42.4527C64.6553 41.0123 64.0613 39.6123 63.0256 38.6115L58.4107 34.1525C57.4096 33.185 56.0914 32.6521 54.699 32.6521H35.2508V18.1018H43.9676C44.7768 18.1018 45.4324 17.4459 45.4324 16.6369C45.4324 15.8279 44.7768 15.1721 43.9676 15.1721H35.2508V13.5902C35.2508 12.7812 34.5951 12.1254 33.7859 12.1254H33.0475V1.46484C33.0475 0.655859 32.3918 0 31.5826 0H17.6145C16.8053 0 16.1496 0.655859 16.1496 1.46484V12.1256H15.4111C14.602 12.1256 13.9463 12.7814 13.9463 13.5904V39.7559C13.9463 40.5648 14.602 41.2207 15.4111 41.2207H18.2027V47.1766H8.3002C7.49102 47.1766 6.83535 47.8324 6.83535 48.6414V53.4709C6.83535 54.2801 7.49102 54.9357 8.3002 54.9357H8.95137V60.1463C8.95137 60.9555 9.60703 61.6111 10.4162 61.6111H16.7334C17.5426 61.6111 18.1982 60.9555 18.1982 60.1463V54.9357H19.6313V60.1463C19.6313 60.9555 20.2869 61.6111 21.0961 61.6111H27.4133C28.2225 61.6111 28.8781 60.9555 28.8781 60.1463V54.9357H29.5293C30.3385 54.9357 30.9941 54.2801 30.9941 53.4709V48.6414V41.2207H33.7855C34.5947 41.2207 35.2504 40.5648 35.2504 39.7559V35.5816H54.6986C55.3273 35.5816 55.9225 35.8221 56.3744 36.2592L60.9893 40.7182C61.457 41.1699 61.7252 41.8021 61.7252 42.4525V58.7361C61.7252 59.3805 61.4744 59.9859 61.0188 60.4416L56.3654 65.0949C55.91 65.5506 55.3043 65.8014 54.6602 65.8014H33.7854C32.9762 65.8014 32.3205 66.457 32.3205 67.2662V69.1283H12.5205C11.7113 69.1283 11.0557 69.784 11.0557 70.5932C11.0557 71.4023 11.7113 72.058 12.5205 72.058H32.3205V75.4939C29.9947 75.4939 10.0564 75.4939 7.25137 75.4939C5.325 75.4939 3.74844 73.9658 3.6709 72.058H6.66348C7.47266 72.058 8.12832 71.4023 8.12832 70.5932C8.12832 69.784 7.47266 69.1283 6.66348 69.1283H2.20312C1.39395 69.1283 0.738281 69.784 0.738281 70.5932V71.9104C0.738281 75.5018 3.66016 78.4236 7.25156 78.4236H12.6598V82.258C12.6598 83.0672 13.3154 83.7229 14.1246 83.7229H22.9525C23.7617 83.7229 24.4174 83.0672 24.4174 82.258V78.4236H32.3205V84.6205C32.3205 85.4297 32.9762 86.0854 33.7854 86.0854H43.0023V89.0518H8.66621C5.6125 89.0518 3.12832 91.5361 3.12832 94.5897V98.5352C3.12832 99.3443 3.78398 100 4.59316 100H65.4443C66.2535 100 66.9092 99.3443 66.9092 98.5352C66.9092 97.726 66.2535 97.0703 65.4443 97.0703H6.05781V94.59C6.05781 93.152 7.22793 91.9818 8.66602 91.9818H77.7232C79.1613 91.9818 80.3314 93.152 80.3314 94.59V97.0703H71.3008C70.4916 97.0703 69.8359 97.726 69.8359 98.5352C69.8359 99.3443 70.4916 100 71.3008 100H81.7963C82.6055 100 83.2611 99.3443 83.2611 98.5352V94.59H83.2615ZM19.0787 2.92969H30.1172V12.1256H19.0787V2.92969ZM9.76504 50.1063H28.0643V52.0061C24.8414 52.0061 14.3322 52.0061 9.76504 52.0061V50.1063ZM15.2684 58.6814H11.8809V54.9357H15.2684V58.6814ZM25.9482 58.6814H22.5607V54.9357H25.9482V58.6814ZM28.0643 47.1766H21.1318V41.2207H28.0643V47.1766ZM32.3205 38.291C26.8811 38.291 22.3922 38.291 16.8754 38.291V15.0553H32.3205V38.291ZM21.4877 80.7936H15.5895V78.424H21.4877V80.7936ZM45.9322 89.0521V82.7559C45.9322 77.7803 49.9803 73.7324 54.9559 73.7324C59.9314 73.7324 63.9793 77.7805 63.9793 82.7559V89.0521H45.9322Z" fill="#4267B2"/>
</svg>
