<svg width="73" height="73" viewBox="0 0 73 73" fill="none" xmlns="http://www.w3.org/2000/svg">
<circle cx="36.5" cy="36.5" r="36.5" fill="#F0F7FF"/>
<path d="M48.2001 39H46.6001V40.6H48.2001V39Z" fill="#4267B2"/>
<path d="M48.2001 42.2H46.6001V43.8H48.2001V42.2Z" fill="#4267B2"/>
<path d="M48.2001 45.4H46.6001V47H48.2001V45.4Z" fill="#4267B2"/>
<path d="M48.2001 32.6H46.6001V34.2H48.2001V32.6Z" fill="#4267B2"/>
<path d="M48.2001 35.7999H46.6001V37.3999H48.2001V35.7999Z" fill="#4267B2"/>
<path d="M48.2001 29.4H46.6001V31H48.2001V29.4Z" fill="#4267B2"/>
<path d="M48.2001 26.2H46.6001V27.7999H48.2001V26.2Z" fill="#4267B2"/>
<path d="M61 34.2H58.9312L60.3944 32.7376L59.2632 31.6064L57.8 33.0688V31H56.2V33.0688L54.7368 31.6064L53.6056 32.7376L55.0688 34.2H53V35.8H55.0688L53.6056 37.2624L54.7368 38.3936L56.2 36.9312V51H56.12C55.7375 49.1387 54.1002 47.8021 52.2 47.8H51.4V24.6H54.6V23H51.4C51.4004 21.4933 50.7912 20.0506 49.7112 19H51.4V17.4H43.4V15.6528C44.6473 15.2135 45.3023 13.8462 44.8629 12.5989C44.5249 11.6393 43.6174 10.9981 42.6 11H31.4C30.0776 10.9975 29.0036 12.0675 29.0011 13.3899C28.9992 14.4073 29.6404 15.3148 30.6 15.6528V17.4H22.6V19H24.2888C23.2088 20.0506 22.5996 21.4933 22.6 23H19.4V24.6H22.6V47.8H21.8C19.8998 47.8021 18.2625 49.1387 17.88 51H17.8V36.9312L19.2632 38.3936L20.3944 37.2624L18.9312 35.8H21V34.2H18.9312L20.3944 32.7376L19.2632 31.6064L17.8 33.0688V31H16.2V33.0688L14.7368 31.6064L13.6056 32.7376L15.0688 34.2H13V35.8H15.0688L13.6056 37.2624L14.7368 38.3936L16.2 36.9312V51.08C14.3389 51.4627 13.0024 53.0999 13 55V59H61V55C60.9976 53.0999 59.6611 51.4627 57.8 51.08V36.9312L59.2632 38.3936L60.3944 37.2624L58.9312 35.8H61V34.2ZM22.6 52.6V57.4H21V55.8H19.4V57.4H17.8V55.8H16.2V57.4H14.6V55C14.6 53.6745 15.6745 52.6 17 52.6H19.4V51.8C19.4 50.4745 20.4745 49.4 21.8 49.4H22.6V52.6ZM31.4 12.6H42.6C43.0418 12.6 43.4 12.9582 43.4 13.4C43.4 13.8418 43.0418 14.2 42.6 14.2H31.4C30.9582 14.2 30.6 13.8418 30.6 13.4C30.6 12.9582 30.9582 12.6 31.4 12.6ZM41.8 15.8V17.4H32.2V15.8H41.8ZM29 57.4H24.2V54.2H29V57.4ZM29 52.6H24.2V51H29V52.6ZM29 46.2V49.4H24.2V24.6H29V46.2ZM29 23H24.2C24.2026 20.792 25.992 19.0026 28.2 19H29V23ZM38.6 57.4H35.4V55C35.4 54.5582 35.7582 54.2 36.2 54.2H37.8C38.2418 54.2 38.6 54.5582 38.6 55V57.4ZM43.4 52.6V57.4H40.2V55C40.2 53.6745 39.1255 52.6 37.8 52.6H36.2C34.8745 52.6 33.8 53.6745 33.8 55V57.4H30.6V51H43.4V52.6ZM43.4 49.4H30.6V47.8H43.4V49.4ZM43.4 23V46.2H30.6V19H43.4V23ZM49.8 57.4H45V54.2H49.8V57.4ZM49.8 52.6H45V51H49.8V52.6ZM49.8 47.8V49.4H45V24.6H49.8V47.8ZM45 23V19H45.8C48.008 19.0026 49.7974 20.792 49.8 23H45ZM59.4 55V57.4H57.8V55.8H56.2V57.4H54.6V55.8H53V57.4H51.4V49.4H52.2C53.5255 49.4 54.6 50.4745 54.6 51.8V52.6H57C58.3255 52.6 59.4 53.6745 59.4 55Z" fill="#4267B2"/>
<path d="M27.3998 39H25.7998V40.6H27.3998V39Z" fill="#4267B2"/>
<path d="M27.3998 42.2H25.7998V43.8H27.3998V42.2Z" fill="#4267B2"/>
<path d="M27.3998 45.4H25.7998V47H27.3998V45.4Z" fill="#4267B2"/>
<path d="M27.3998 32.6H25.7998V34.2H27.3998V32.6Z" fill="#4267B2"/>
<path d="M27.3998 35.7999H25.7998V37.3999H27.3998V35.7999Z" fill="#4267B2"/>
<path d="M27.3998 29.4H25.7998V31H27.3998V29.4Z" fill="#4267B2"/>
<path d="M27.3998 26.2H25.7998V27.7999H27.3998V26.2Z" fill="#4267B2"/>
<path d="M41 20.6H33V25.4H41V20.6ZM36.2 23.8H34.6V22.2H36.2V23.8ZM39.4 23.8H37.8V22.2H39.4V23.8Z" fill="#4267B2"/>
<path d="M41 27H33V31.8H41V27ZM36.2 30.2H34.6V28.6H36.2V30.2ZM39.4 30.2H37.8V28.6H39.4V30.2Z" fill="#4267B2"/>
<path d="M41 33.4H33V38.2H41V33.4ZM36.2 36.6H34.6V35H36.2V36.6ZM39.4 36.6H37.8V35H39.4V36.6Z" fill="#4267B2"/>
<path d="M41 39.8H33V44.6H41V39.8ZM36.2 43H34.6V41.4H36.2V43ZM39.4 43H37.8V41.4H39.4V43Z" fill="#4267B2"/>
</svg>
