<svg width="95" height="95" viewBox="0 0 95 95" fill="none" xmlns="http://www.w3.org/2000/svg">
<path d="M94.5926 92.6247L82.6254 80.6575L84.8133 78.4695C86.0378 77.2452 86.0381 75.2636 84.8135 74.039L79.7514 68.9769L80.7352 67.9931C82.1444 66.5841 82.1452 64.3024 80.7354 62.8926L44.71 26.8672C44.1663 26.3238 47.9153 30.9537 47.3718 31.4972C46.8284 32.0406 42.1984 28.2919 42.7419 28.8353L48.7619 34.8554L46.5246 37.0927L38.8059 29.374L41.043 27.1365L42.7419 28.8353C43.2853 29.3788 46.8284 32.0406 47.3718 31.4972C47.9153 30.9537 45.2534 27.4107 44.71 26.8672L43.0111 25.1684L44.3567 23.8228C46.7352 21.4443 46.7352 17.5739 44.3567 15.1954C41.9726 12.8113 38.1138 12.8109 35.7293 15.1954L30.1783 20.7464L19.761 10.3291L21.7643 8.32572C23.6664 6.42349 23.6664 3.32857 21.7643 1.42653C19.8623 -0.47551 16.7674 -0.47551 14.8651 1.42653L1.42653 14.8655C-0.47551 16.7675 -0.47551 19.8625 1.42653 21.7647C3.3282 23.6664 6.42331 23.6669 8.32572 21.7647L10.3289 19.7615L20.7462 30.1789L15.1952 35.7299C12.8111 38.114 12.8108 41.9728 15.1952 44.3573C17.5737 46.7356 21.4439 46.736 23.8226 44.3573L25.1682 43.0117L60.3054 78.149C60.849 78.6925 59.7619 76.7244 60.3056 76.181C60.849 75.6375 62.8171 76.7244 62.2737 76.181L36.8231 50.73L50.7299 36.8233L57.4329 43.5264L53.1321 47.8272C52.5887 48.3706 52.5887 49.2518 53.1321 49.7953C53.6756 50.3387 54.5566 50.3387 55.1004 49.7953L59.4012 45.4947L64.8234 50.9169L62.2733 53.467C61.7298 54.0105 61.7298 54.8917 62.2733 55.4351C62.8167 55.9786 63.6977 55.9786 64.2416 55.4351L66.7915 52.8852L72.2138 58.3074L67.913 62.6082C67.3695 63.1517 67.3695 64.0328 67.913 64.5763C68.4565 65.1198 69.3374 65.1198 69.8813 64.5763L74.1821 60.2757L78.7673 64.8609C79.0846 65.1782 79.0929 65.6996 78.7671 66.0252L66.0245 78.7677C65.7028 79.0894 65.1821 79.0894 64.8604 78.7677L62.2737 76.181C61.73 75.6375 60.8488 75.6375 60.3056 76.181C59.7619 76.7244 59.7619 77.6054 60.3054 78.149L62.8923 80.7359C64.3017 82.1454 66.583 82.1454 67.9926 80.7359L68.9765 79.752L74.0386 84.8139C75.2627 86.0383 77.2447 86.0385 78.4691 84.8139L80.6571 82.6259L92.6241 94.5929C93.1678 95.1364 94.0487 95.1364 94.5924 94.5929C95.1359 94.0493 95.1359 93.168 94.5926 92.6247ZM44.5565 39.0606L39.0604 44.5567L31.3417 36.838L36.8378 31.3419L44.5565 39.0606ZM6.35762 19.7964C5.54066 20.6134 4.2114 20.6132 3.39463 19.7964C2.57785 18.9795 2.57785 17.6504 3.39463 16.8334L16.8334 3.39463C17.6502 2.57785 18.9796 2.57766 19.7964 3.39463C20.6132 4.2114 20.6132 5.54066 19.7964 6.35762C18.087 8.06725 7.75702 18.3972 6.35762 19.7964ZM12.297 17.7934L17.7931 12.2974L28.2104 22.7147L22.7143 28.2108L12.297 17.7934ZM17.1633 42.389C15.8669 41.0924 15.8669 38.9944 17.1633 37.6978L37.6974 17.1635C38.994 15.8671 41.092 15.8671 42.3886 17.1635C43.6819 18.4568 43.6819 20.5614 42.3886 21.8547C35.7323 28.511 28.0399 36.2034 21.8545 42.3888C20.5612 43.6822 18.4568 43.6822 17.1633 42.389ZM27.1363 41.0432L29.3736 38.8059L37.0923 46.5246L34.855 48.7619L27.1363 41.0432ZM76.501 82.8458C76.3646 82.9822 76.1442 82.9829 76.0071 82.8458L70.9448 77.7837L77.7833 70.9452L82.8454 76.0073C82.9824 76.1442 82.9822 76.3646 82.8452 76.5014L76.501 82.8458Z" fill="#4267B2"/>
</svg>
