<svg width="17" height="16" viewBox="0 0 17 16" fill="none" xmlns="http://www.w3.org/2000/svg">
<path d="M1.68232 0.268945C1.27857 -0.107889 0.645779 -0.0860689 0.268945 0.317682C-0.107889 0.721432 -0.0860689 1.35422 0.317682 1.73106L1.68232 0.268945ZM15.3177 15.7311C15.7214 16.1079 16.3542 16.0861 16.7311 15.6823C17.1079 15.2786 17.0861 14.6458 16.6823 14.2689L15.3177 15.7311ZM16.6823 1.73106C17.0861 1.35422 17.1079 0.721432 16.7311 0.317682C16.3542 -0.0860689 15.7214 -0.107889 15.3177 0.268945L16.6823 1.73106ZM0.317682 14.2689C-0.0860689 14.6458 -0.107889 15.2786 0.268945 15.6823C0.645779 16.0861 1.27857 16.1079 1.68232 15.7311L0.317682 14.2689ZM0.317682 1.73106L15.3177 15.7311L16.6823 14.2689L1.68232 0.268945L0.317682 1.73106ZM15.3177 0.268945L0.317682 14.2689L1.68232 15.7311L16.6823 1.73106L15.3177 0.268945Z" fill="#FF9314"/>
</svg>
